<?xml version="1.0" encoding="utf-8"?>
<!-- Generator: Adobe Illustrator 16.0.0, SVG Export Plug-In . SVG Version: 6.00 Build 0)  -->
<!DOCTYPE svg PUBLIC "-//W3C//DTD SVG 1.1//EN" "http://www.w3.org/Graphics/SVG/1.1/DTD/svg11.dtd">
<svg version="1.1" id="Layer_1" xmlns="http://www.w3.org/2000/svg" xmlns:xlink="http://www.w3.org/1999/xlink" x="0px" y="0px"
	 viewBox="0 0 39 49" enable-background="new 0 0 39 49" xml:space="preserve">
<g>
	<path fill="none" d="M16.951,0.374l-4.625,6.725c0,0,4.518-3.334,7.712-2.836c0,0,1.952,0.228,5.673,2.698l5.027,3.122
		c0,0-7.995-1.313-15.458,1.041c0,0-12.521,3.594-14.862,16.299V5.539c0,0,0.125-5.219,6.465-5.165H16.951z"/>
	<path fill="none" d="M38.32,5.539c0,0-0.126-5.219-6.469-5.165h-8.742l-1.036,0.008l16.26,9.847L38.32,5.539z"/>
	
		<linearGradient id="SVGID_1_" gradientUnits="userSpaceOnUse" x1="-286.0698" y1="420.8701" x2="-285.9724" y2="420.8701" gradientTransform="matrix(-174.4202 -290.6999 -290.6999 174.4202 72480.6484 -156530.75)">
		<stop  offset="0" style="stop-color:#E8E8E8"/>
		<stop  offset="1" style="stop-color:#E6E6E6"/>
	</linearGradient>
	<path fill="url(#SVGID_1_)" d="M23.31,28.688c-2.246,0-4.065-1.818-4.065-4.059c0-2.246,1.819-4.067,4.065-4.067
		c2.248,0,4.063,1.821,4.063,4.067C27.372,26.87,25.558,28.688,23.31,28.688 M13.682,16.275C3.316,23.746,6.228,34.262,6.228,34.262
		h26.594c5.389-0.67,5.488-5.014,5.488-5.014V14.228C38.31,14.228,24.053,8.811,13.682,16.275"/>
	<path fill="#FFFFFF" stroke="#FFFFFF" stroke-width="1.1021" d="M38.323,10.176l-0.003-4.66c0,0-0.14-5.244-6.518-5.202H16.892
		H6.827c-6.293-0.042-6.43,5.95-6.414,5.189v21.898c-0.003-0.037,0.005-0.07-0.003-0.099v1.914c0,0,0.107,4.35,5.471,4.972
		l0.358,0.019l26.549-0.019c5.409-0.622,5.515-5.294,5.504-4.972V14.863l0.011-0.687L38.323,10.176z"/>
	<path fill="#F6921E" d="M16.95,0.32l-4.632,6.729c0,0,4.523-3.338,7.717-2.843c0,0,1.949,0.22,5.672,2.7l5.03,3.124
		c0,0-8.003-1.316-15.463,1.036c0,0-12.519,3.596-14.861,16.305V5.485c0,0,0.122-5.216,6.464-5.166H16.95z"/>
	<path fill="#F6921E" d="M38.314,5.485c0,0-0.12-5.216-6.463-5.166h-8.745l-1.033,0.008l16.26,9.848L38.314,5.485z"/>
	<path fill="#224099" d="M23.303,28.633c-2.241,0-4.064-1.815-4.064-4.062c0-2.244,1.823-4.063,4.064-4.063
		c2.244,0,4.061,1.819,4.061,4.063C27.363,26.817,25.547,28.633,23.303,28.633 M13.679,16.227
		C3.314,23.695,6.226,34.215,6.226,34.215h26.593c5.386-0.674,5.484-5.023,5.484-5.023V14.177
		C38.303,14.177,24.045,8.75,13.679,16.227"/>
</g>
<g>
	<g>
		<g>
			<path fill="#F9F9F9" d="M1.715,48.687V37.032h1.6l6.094,9.146v-9.146h1.488v11.654H9.305l-6.098-9.142v9.142H1.715z"/>
		</g>
		<g>
			<path fill="#F9F9F9" d="M17.881,45.972l1.429,0.182c-0.237,0.863-0.663,1.532-1.298,2.001c-0.631,0.475-1.435,0.709-2.417,0.709
				c-1.23,0-2.212-0.378-2.936-1.133c-0.721-0.758-1.083-1.82-1.083-3.188c0-1.417,0.371-2.513,1.096-3.292
				c0.73-0.785,1.682-1.176,2.844-1.176c1.131,0,2.049,0.383,2.767,1.155c0.715,0.76,1.069,1.845,1.069,3.232
				c0,0.084,0,0.21-0.006,0.384h-6.309c0.054,0.925,0.32,1.629,0.797,2.12c0.478,0.498,1.072,0.74,1.789,0.74
				c0.532,0,0.989-0.14,1.359-0.415C17.356,47.021,17.655,46.578,17.881,45.972z M13.129,43.682h4.764
				c-0.059-0.715-0.247-1.255-0.549-1.614c-0.453-0.554-1.053-0.826-1.791-0.826c-0.665,0-1.225,0.218-1.675,0.664
				C13.427,42.35,13.176,42.943,13.129,43.682z"/>
		</g>
		<g>
			<path fill="#F9F9F9" d="M21.417,48.687l-2.591-8.434h1.494l1.367,4.854l0.478,1.826c0.017-0.089,0.167-0.67,0.452-1.741
				l1.337-4.939h1.466l1.252,4.887l0.408,1.614l0.495-1.626l1.479-4.875h1.392l-2.7,8.434h-1.457l-1.324-5.057l-0.322-1.432
				l-1.739,6.488H21.417z"/>
		</g>
		<g>
			<path fill="#F9F9F9" d="M30.052,46.127l1.394-0.18c0.083,0.565,0.3,1.005,0.666,1.305c0.359,0.302,0.867,0.454,1.516,0.454
				c0.661,0,1.146-0.131,1.461-0.402c0.314-0.268,0.475-0.584,0.475-0.944c0-0.322-0.146-0.58-0.432-0.759
				c-0.198-0.135-0.687-0.302-1.456-0.499c-1.038-0.256-1.76-0.486-2.163-0.678c-0.396-0.193-0.702-0.467-0.908-0.801
				c-0.21-0.337-0.314-0.713-0.314-1.123c0-0.377,0.083-0.722,0.254-1.043c0.172-0.323,0.406-0.584,0.704-0.803
				c0.215-0.155,0.516-0.293,0.901-0.41c0.379-0.116,0.785-0.17,1.231-0.17c0.65,0,1.225,0.1,1.718,0.287
				c0.509,0.183,0.87,0.443,1.108,0.768c0.236,0.328,0.396,0.748,0.493,1.298l-1.408,0.187c-0.057-0.434-0.245-0.772-0.542-1.01
				c-0.305-0.24-0.728-0.362-1.28-0.362c-0.65,0-1.117,0.107-1.392,0.326c-0.279,0.214-0.418,0.47-0.418,0.765
				c0,0.188,0.057,0.354,0.174,0.501c0.113,0.152,0.298,0.28,0.54,0.383c0.144,0.052,0.56,0.179,1.25,0.366
				c1.005,0.267,1.714,0.486,2.104,0.66c0.405,0.168,0.715,0.417,0.951,0.744c0.227,0.326,0.349,0.738,0.349,1.223
				c0,0.471-0.144,0.922-0.42,1.343c-0.274,0.416-0.674,0.742-1.194,0.972c-0.521,0.228-1.114,0.34-1.773,0.34
				c-1.093,0-1.924-0.228-2.498-0.686C30.568,47.714,30.207,47.029,30.052,46.127z"/>
		</g>
	</g>
</g>
</svg>
